<svg width="46" height="52" viewBox="0 0 46 52" fill="none" xmlns="http://www.w3.org/2000/svg">
<g clip-path="url(#clip0_84_405)">
<path d="M25.1705 0.21875H22.475V6.68335H25.1705V0.21875Z" fill="white"/>
<path d="M33.0883 28.0742H13.0054V30.9057H33.0883V28.0742Z" fill="#E4E4E4"/>
<path d="M27.0175 31.4446C27.0175 32.6775 28.0207 33.6807 29.2536 33.6807C30.4865 33.6807 31.4897 32.6775 31.4897 31.4446C31.4897 30.2117 30.4865 29.2085 29.2536 29.2085C28.016 29.2085 27.0175 30.2117 27.0175 31.4446Z" fill="#C6C6C6"/>
<path d="M14.7867 31.4353C14.7867 32.6683 15.79 33.6715 17.0229 33.6715C18.2558 33.6715 19.259 32.6683 19.259 31.4353C19.259 30.2024 18.2558 29.1992 17.0229 29.1992C15.79 29.2039 14.7867 30.2024 14.7867 31.4353Z" fill="#C6C6C6"/>
<path d="M17.7917 25.0785C18.7152 24.4034 19.3106 24.0894 20.206 24.0894H24.3173H28.4285C29.3286 24.0894 29.9193 24.4034 30.8428 25.0785C31.7194 25.7161 34.2603 27.5303 34.2603 27.5303H24.3126H14.3649C14.3742 27.5303 16.9151 25.7161 17.7917 25.0785Z" fill="white"/>
<path d="M29.5255 25.5471C28.8927 25.1205 28.4848 24.9189 27.866 24.9189H25.4283H24.3548H20.7685C20.1544 24.9189 19.7466 25.1205 19.109 25.5471C18.509 25.9503 17.4917 26.7191 17.4917 26.7191H23.6281H24.3173H31.1428C31.1428 26.7191 30.1256 25.9503 29.5255 25.5471Z" fill="white"/>
<path d="M29.2536 30.1509C28.5364 30.1509 27.9551 30.7322 27.9551 31.4494C27.9551 32.1667 28.5364 32.7433 29.2536 32.7433C29.9709 32.7433 30.5522 32.162 30.5522 31.4494C30.5475 30.7275 29.9709 30.1509 29.2536 30.1509Z" fill="#E4E4E4"/>
<path d="M17.0229 30.1416C16.3057 30.1416 15.7244 30.7229 15.7244 31.4355C15.7244 32.1527 16.3057 32.734 17.0229 32.734C17.7402 32.734 18.3215 32.1527 18.3215 31.4355C18.3215 30.7229 17.7402 30.1416 17.0229 30.1416Z" fill="#E4E4E4"/>
<path d="M34.2649 31.4353H32.0616C32.0569 30.6009 31.6913 29.8508 31.11 29.3398H34.2602V31.4353H34.2649Z" fill="white"/>
<path d="M12.6163 27.5303H19.8357H26.4456H34.265V29.3398H31.1147C30.6178 28.8991 29.9709 28.6366 29.2536 28.6366C28.5411 28.6366 27.8895 28.9038 27.3925 29.3398C26.8112 29.8508 26.4456 30.6008 26.4409 31.4353H19.831C19.831 30.6008 19.47 29.8508 18.8934 29.3398C18.3965 28.8944 17.7402 28.6272 17.0229 28.6272C16.3057 28.6272 15.6494 28.8991 15.1525 29.3398H11.735V28.4772C11.735 28.4772 11.735 27.5303 12.6163 27.5303Z" fill="white"/>
<path d="M15.1571 29.3398C14.5805 29.8555 14.2149 30.6009 14.2149 31.4353H11.735V29.3398H15.1571Z" fill="white"/>
<path d="M30.6037 11.8447C30.6037 12.5901 29.999 13.1949 29.2536 13.1949H18.3917C17.6464 13.1949 17.0416 12.5901 17.0416 11.8447C17.0416 11.0994 17.6464 10.4946 18.3917 10.4946H29.2583C30.0036 10.4946 30.6037 11.0994 30.6037 11.8447Z" fill="white"/>
<path d="M19.9997 14.5729C20.3091 14.8823 20.3091 15.3886 19.9997 15.698L15.4665 20.2312C15.1571 20.5406 14.6508 20.5406 14.3414 20.2312C14.032 19.9218 14.032 19.4155 14.3414 19.1061L18.8746 14.5729C19.1887 14.2635 19.6903 14.2635 19.9997 14.5729Z" fill="white"/>
<path d="M27.6457 14.5729C27.9551 14.2635 28.4614 14.2635 28.7708 14.5729L33.304 19.1061C33.6134 19.4155 33.6134 19.9218 33.304 20.2312C32.9946 20.5406 32.4883 20.5406 32.1789 20.2312L27.6457 15.698C27.3363 15.3839 27.3363 14.8823 27.6457 14.5729Z" fill="white"/>
<path d="M23.7969 14.9248C24.2376 14.9248 24.5939 15.2811 24.5939 15.7217V22.1348C24.5939 22.5754 24.2376 22.9317 23.7969 22.9317C23.3563 22.9317 23 22.5754 23 22.1348V15.7217C23 15.2811 23.3563 14.9248 23.7969 14.9248Z" fill="white"/>
<path d="M20.9467 17.8359C21.1389 17.8359 21.2889 17.9906 21.2889 18.1828V20.9628C21.2889 21.155 21.1342 21.3097 20.942 21.3097C20.7498 21.3097 20.5951 21.155 20.5951 20.9628V18.1828C20.5998 17.9906 20.7545 17.8359 20.9467 17.8359Z" fill="#C6C6C6"/>
<path d="M26.6706 17.8359C26.8628 17.8359 27.0128 17.9906 27.0128 18.1828V20.9628C27.0128 21.155 26.8581 21.3097 26.6659 21.3097C26.4737 21.3097 26.319 21.155 26.319 20.9628V18.1828C26.3283 17.9906 26.483 17.8359 26.6706 17.8359Z" fill="#C6C6C6"/>
<path d="M19.0715 7.74883V10.4959H23.7641V3C21.167 3.03282 19.0715 5.14237 19.0715 7.74883Z" fill="#C6C6C6"/>
<path d="M28.5786 7.74766C28.5786 5.12244 26.4503 2.99414 23.8251 2.99414C23.8064 2.99414 23.7829 2.99883 23.7642 2.99883V10.4948H28.5786V7.74766Z" fill="white"/>
<path d="M21.5092 7.44732C22.0115 7.44732 22.4186 7.04014 22.4186 6.53787C22.4186 6.03559 22.0115 5.62842 21.5092 5.62842C21.0069 5.62842 20.5997 6.03559 20.5997 6.53787C20.5997 7.04014 21.0069 7.44732 21.5092 7.44732Z" fill="white"/>
</g>
<path d="M1.74 46.6807C1.476 46.6807 1.272 46.6127 1.128 46.4767C0.992 46.3327 0.924 46.1287 0.924 45.8647V39.0367C0.924 38.7727 0.992 38.5727 1.128 38.4367C1.272 38.2927 1.476 38.2207 1.74 38.2207H4.62C5.212 38.2207 5.716 38.3087 6.132 38.4847C6.548 38.6607 6.864 38.9127 7.08 39.2407C7.304 39.5687 7.416 39.9607 7.416 40.4167C7.416 40.9287 7.268 41.3607 6.972 41.7127C6.676 42.0647 6.272 42.3007 5.76 42.4207V42.2407C6.352 42.3287 6.812 42.5527 7.14 42.9127C7.468 43.2727 7.632 43.7407 7.632 44.3167C7.632 45.0687 7.376 45.6527 6.864 46.0687C6.36 46.4767 5.656 46.6807 4.752 46.6807H1.74ZM2.4 45.5167H4.56C5.104 45.5167 5.504 45.4127 5.76 45.2047C6.016 44.9887 6.144 44.6687 6.144 44.2447C6.144 43.8127 6.016 43.4927 5.76 43.2847C5.504 43.0767 5.104 42.9727 4.56 42.9727H2.4V45.5167ZM2.4 41.8087H4.356C4.884 41.8087 5.276 41.7087 5.532 41.5087C5.796 41.3007 5.928 40.9967 5.928 40.5967C5.928 40.1967 5.796 39.8967 5.532 39.6967C5.276 39.4887 4.884 39.3847 4.356 39.3847H2.4V41.8087ZM11.7177 46.8007C11.1097 46.8007 10.5817 46.6767 10.1337 46.4287C9.68572 46.1807 9.33772 45.8287 9.08972 45.3727C8.84172 44.9087 8.71772 44.3647 8.71772 43.7407C8.71772 43.2687 8.78572 42.8487 8.92172 42.4807C9.06572 42.1047 9.26972 41.7847 9.53372 41.5207C9.79772 41.2487 10.1137 41.0447 10.4817 40.9087C10.8497 40.7647 11.2617 40.6927 11.7177 40.6927C12.3257 40.6927 12.8537 40.8167 13.3017 41.0647C13.7497 41.3127 14.0977 41.6647 14.3457 42.1207C14.5937 42.5767 14.7177 43.1167 14.7177 43.7407C14.7177 44.2127 14.6457 44.6367 14.5017 45.0127C14.3657 45.3887 14.1657 45.7127 13.9017 45.9847C13.6377 46.2487 13.3217 46.4527 12.9537 46.5967C12.5857 46.7327 12.1737 46.8007 11.7177 46.8007ZM11.7177 45.6607C12.0137 45.6607 12.2737 45.5887 12.4977 45.4447C12.7217 45.3007 12.8937 45.0887 13.0137 44.8087C13.1417 44.5207 13.2057 44.1647 13.2057 43.7407C13.2057 43.1007 13.0697 42.6247 12.7977 42.3127C12.5257 41.9927 12.1657 41.8327 11.7177 41.8327C11.4217 41.8327 11.1617 41.9047 10.9377 42.0487C10.7137 42.1847 10.5377 42.3967 10.4097 42.6847C10.2897 42.9647 10.2297 43.3167 10.2297 43.7407C10.2297 44.3727 10.3657 44.8527 10.6377 45.1807C10.9097 45.5007 11.2697 45.6607 11.7177 45.6607ZM18.6318 46.8007C18.0238 46.8007 17.4958 46.6767 17.0478 46.4287C16.5998 46.1807 16.2518 45.8287 16.0038 45.3727C15.7558 44.9087 15.6318 44.3647 15.6318 43.7407C15.6318 43.2687 15.6998 42.8487 15.8358 42.4807C15.9798 42.1047 16.1838 41.7847 16.4478 41.5207C16.7118 41.2487 17.0278 41.0447 17.3958 40.9087C17.7638 40.7647 18.1758 40.6927 18.6318 40.6927C19.2398 40.6927 19.7678 40.8167 20.2158 41.0647C20.6638 41.3127 21.0118 41.6647 21.2598 42.1207C21.5078 42.5767 21.6318 43.1167 21.6318 43.7407C21.6318 44.2127 21.5598 44.6367 21.4158 45.0127C21.2798 45.3887 21.0798 45.7127 20.8158 45.9847C20.5518 46.2487 20.2358 46.4527 19.8678 46.5967C19.4998 46.7327 19.0878 46.8007 18.6318 46.8007ZM18.6318 45.6607C18.9278 45.6607 19.1878 45.5887 19.4118 45.4447C19.6358 45.3007 19.8078 45.0887 19.9278 44.8087C20.0558 44.5207 20.1198 44.1647 20.1198 43.7407C20.1198 43.1007 19.9838 42.6247 19.7118 42.3127C19.4398 41.9927 19.0798 41.8327 18.6318 41.8327C18.3358 41.8327 18.0758 41.9047 17.8518 42.0487C17.6278 42.1847 17.4518 42.3967 17.3238 42.6847C17.2038 42.9647 17.1438 43.3167 17.1438 43.7407C17.1438 44.3727 17.2798 44.8527 17.5518 45.1807C17.8238 45.5007 18.1838 45.6607 18.6318 45.6607ZM23.6138 46.7767C23.3738 46.7767 23.1898 46.7127 23.0618 46.5847C22.9338 46.4487 22.8698 46.2567 22.8698 46.0087V38.8807C22.8698 38.6327 22.9338 38.4447 23.0618 38.3167C23.1898 38.1887 23.3738 38.1247 23.6138 38.1247C23.8538 38.1247 24.0378 38.1887 24.1658 38.3167C24.3018 38.4447 24.3698 38.6327 24.3698 38.8807V43.3087H24.3938L26.3738 41.2207C26.5338 41.0607 26.6738 40.9367 26.7938 40.8487C26.9138 40.7607 27.0778 40.7167 27.2858 40.7167C27.4938 40.7167 27.6498 40.7727 27.7538 40.8847C27.8658 40.9887 27.9218 41.1167 27.9218 41.2687C27.9218 41.4207 27.8498 41.5727 27.7058 41.7247L25.6178 43.9327V43.3087L27.9098 45.7807C28.0538 45.9327 28.1178 46.0887 28.1018 46.2487C28.0938 46.4007 28.0298 46.5287 27.9098 46.6327C27.7898 46.7287 27.6378 46.7767 27.4538 46.7767C27.2298 46.7767 27.0498 46.7327 26.9138 46.6447C26.7858 46.5567 26.6418 46.4247 26.4818 46.2487L24.3938 44.0647H24.3698V46.0087C24.3698 46.5207 24.1178 46.7767 23.6138 46.7767ZM30.0474 46.7647C29.8074 46.7647 29.6234 46.6927 29.4954 46.5487C29.3674 46.4047 29.3034 46.2047 29.3034 45.9487V41.5447C29.3034 41.2807 29.3674 41.0807 29.4954 40.9447C29.6234 40.8007 29.8074 40.7287 30.0474 40.7287C30.2874 40.7287 30.4714 40.8007 30.5994 40.9447C30.7354 41.0807 30.8034 41.2807 30.8034 41.5447V45.9487C30.8034 46.2047 30.7394 46.4047 30.6114 46.5487C30.4834 46.6927 30.2954 46.7647 30.0474 46.7647ZM30.0474 39.6127C29.7674 39.6127 29.5474 39.5447 29.3874 39.4087C29.2354 39.2647 29.1594 39.0687 29.1594 38.8207C29.1594 38.5647 29.2354 38.3687 29.3874 38.2327C29.5474 38.0967 29.7674 38.0287 30.0474 38.0287C30.3354 38.0287 30.5554 38.0967 30.7074 38.2327C30.8594 38.3687 30.9354 38.5647 30.9354 38.8207C30.9354 39.0687 30.8594 39.2647 30.7074 39.4087C30.5554 39.5447 30.3354 39.6127 30.0474 39.6127ZM33.106 46.7767C32.866 46.7767 32.682 46.7127 32.554 46.5847C32.426 46.4487 32.362 46.2567 32.362 46.0087V41.4727C32.362 41.2247 32.426 41.0367 32.554 40.9087C32.682 40.7807 32.862 40.7167 33.094 40.7167C33.326 40.7167 33.506 40.7807 33.634 40.9087C33.762 41.0367 33.826 41.2247 33.826 41.4727V42.2887L33.694 41.9887C33.87 41.5647 34.142 41.2447 34.51 41.0287C34.886 40.8047 35.31 40.6927 35.782 40.6927C36.254 40.6927 36.642 40.7807 36.946 40.9567C37.25 41.1327 37.478 41.4007 37.63 41.7607C37.782 42.1127 37.858 42.5607 37.858 43.1047V46.0087C37.858 46.2567 37.794 46.4487 37.666 46.5847C37.538 46.7127 37.354 46.7767 37.114 46.7767C36.874 46.7767 36.686 46.7127 36.55 46.5847C36.422 46.4487 36.358 46.2567 36.358 46.0087V43.1767C36.358 42.7207 36.27 42.3887 36.094 42.1807C35.926 41.9727 35.662 41.8687 35.302 41.8687C34.862 41.8687 34.51 42.0087 34.246 42.2887C33.99 42.5607 33.862 42.9247 33.862 43.3807V46.0087C33.862 46.5207 33.61 46.7767 33.106 46.7767ZM42.1176 48.9607C41.6856 48.9607 41.2656 48.9207 40.8576 48.8407C40.4576 48.7607 40.0936 48.6367 39.7656 48.4687C39.6136 48.3887 39.5096 48.2927 39.4536 48.1807C39.4056 48.0687 39.3896 47.9527 39.4056 47.8327C39.4296 47.7207 39.4776 47.6207 39.5496 47.5327C39.6296 47.4447 39.7256 47.3847 39.8376 47.3527C39.9496 47.3207 40.0656 47.3367 40.1856 47.4007C40.5376 47.5767 40.8696 47.6887 41.1816 47.7367C41.5016 47.7927 41.7736 47.8207 41.9976 47.8207C42.5336 47.8207 42.9336 47.6887 43.1976 47.4247C43.4696 47.1687 43.6056 46.7847 43.6056 46.2727V45.1927H43.7136C43.5936 45.6007 43.3416 45.9287 42.9576 46.1767C42.5816 46.4167 42.1536 46.5367 41.6736 46.5367C41.1456 46.5367 40.6856 46.4167 40.2936 46.1767C39.9016 45.9287 39.5976 45.5847 39.3816 45.1447C39.1656 44.7047 39.0576 44.1927 39.0576 43.6087C39.0576 43.1687 39.1176 42.7727 39.2376 42.4207C39.3656 42.0607 39.5416 41.7527 39.7656 41.4967C39.9976 41.2407 40.2736 41.0447 40.5936 40.9087C40.9216 40.7647 41.2816 40.6927 41.6736 40.6927C42.1696 40.6927 42.6016 40.8167 42.9696 41.0647C43.3456 41.3047 43.5896 41.6247 43.7016 42.0247L43.5816 42.3247V41.4727C43.5816 41.2247 43.6456 41.0367 43.7736 40.9087C43.9096 40.7807 44.0936 40.7167 44.3256 40.7167C44.5656 40.7167 44.7496 40.7807 44.8776 40.9087C45.0056 41.0367 45.0696 41.2247 45.0696 41.4727V46.0927C45.0696 47.0447 44.8176 47.7607 44.3136 48.2407C43.8096 48.7207 43.0776 48.9607 42.1176 48.9607ZM42.0816 45.3967C42.3936 45.3967 42.6616 45.3247 42.8856 45.1807C43.1096 45.0367 43.2816 44.8327 43.4016 44.5687C43.5296 44.2967 43.5936 43.9767 43.5936 43.6087C43.5936 43.0567 43.4576 42.6247 43.1856 42.3127C42.9136 41.9927 42.5456 41.8327 42.0816 41.8327C41.7696 41.8327 41.5016 41.9047 41.2776 42.0487C41.0536 42.1927 40.8776 42.3967 40.7496 42.6607C40.6296 42.9247 40.5696 43.2407 40.5696 43.6087C40.5696 44.1607 40.7056 44.5967 40.9776 44.9167C41.2496 45.2367 41.6176 45.3967 42.0816 45.3967Z" fill="#F7F8F9"/>
<defs>
<clipPath id="clip0_84_405">
<rect width="22.53" height="33.4622" fill="white" transform="translate(11.735 0.21875)"/>
</clipPath>
</defs>
</svg>
