<svg width="14" height="15" viewBox="0 0 14 15" fill="none" xmlns="http://www.w3.org/2000/svg">
<g clip-path="url(#clip0_84_382)">
<path d="M6.04275 1.52398C6.31423 1.30649 6.65171 1.18799 6.99956 1.18799C7.34742 1.18799 7.68489 1.30649 7.95638 1.52398L12.5501 5.19898C12.9132 5.48948 13.125 5.9296 13.125 6.3951V12.5367C13.125 12.9428 12.9637 13.3323 12.6765 13.6195C12.3893 13.9067 11.9999 14.068 11.5938 14.068H8.53125C8.3572 14.068 8.19028 13.9988 8.06721 13.8758C7.94414 13.7527 7.875 13.5858 7.875 13.4117V8.81798H6.125V13.4117C6.125 13.5858 6.05586 13.7527 5.93279 13.8758C5.80972 13.9988 5.6428 14.068 5.46875 14.068H2.40625C2.00014 14.068 1.61066 13.9067 1.32349 13.6195C1.03633 13.3323 0.875 12.9428 0.875 12.5367V6.39423C0.875 5.9296 1.08675 5.48948 1.44987 5.19898L6.04275 1.52398ZM7.1365 2.5486C7.09774 2.51765 7.04961 2.50079 7 2.50079C6.95039 2.50079 6.90226 2.51765 6.8635 2.5486L2.26975 6.2236C2.24401 6.24415 2.22325 6.27025 2.20901 6.29995C2.19477 6.32964 2.18742 6.36217 2.1875 6.3951V12.5367C2.1875 12.6575 2.2855 12.7555 2.40625 12.7555H4.8125V8.16173C4.8125 7.98768 4.88164 7.82076 5.00471 7.69769C5.12778 7.57462 5.2947 7.50548 5.46875 7.50548H8.53125C8.7053 7.50548 8.87222 7.57462 8.99529 7.69769C9.11836 7.82076 9.1875 7.98768 9.1875 8.16173V12.7555H11.5938C11.6518 12.7555 11.7074 12.7324 11.7484 12.6914C11.7895 12.6504 11.8125 12.5947 11.8125 12.5367V6.39423C11.8125 6.36144 11.805 6.32908 11.7908 6.29955C11.7766 6.27002 11.7559 6.24406 11.7303 6.2236L7.1365 2.5486Z" fill="#2B407D"/>
</g>
<defs>
<clipPath id="clip0_84_382">
<rect width="14" height="14" fill="white" transform="translate(0 0.942871)"/>
</clipPath>
</defs>
</svg>
